<?xml version="1.0" standalone="no"?>
<!DOCTYPE svg PUBLIC "-//W3C//DTD SVG 20010904//EN"
 "http://www.w3.org/TR/2001/REC-SVG-20010904/DTD/svg10.dtd">
<svg version="1.0" xmlns="http://www.w3.org/2000/svg"
 width="300.000000pt" height="194.000000pt" viewBox="0 0 300.000000 194.000000"
 preserveAspectRatio="xMidYMid meet">
<metadata>
Created by potrace 1.10, written by Peter Selinger 2001-2011
</metadata>
<g transform="translate(0.000000,194.000000) scale(0.100000,-0.100000)"
fill="#000000" stroke="none">
<path d="M2020 1888 c0 -28 12 -101 27 -161 23 -98 25 -116 15 -164 -15 -74
-42 -107 -115 -142 -82 -40 -194 -55 -355 -49 -103 4 -141 10 -201 32 -109 38
-174 35 -192 -10 -12 -33 3 -69 51 -120 50 -54 57 -83 35 -140 -21 -56 -65
-87 -159 -110 -91 -23 -131 -56 -131 -112 0 -46 23 -78 72 -98 49 -21 111 -17
194 12 96 34 140 29 255 -30 49 -25 125 -55 169 -67 44 -12 90 -28 103 -37 60
-39 74 -157 30 -254 -33 -72 -68 -102 -153 -135 -82 -31 -110 -56 -125 -113
-13 -47 -7 -86 23 -147 l21 -43 184 0 184 0 -7 104 c-8 121 -3 135 74 211 72
70 77 89 73 297 -4 236 8 259 130 256 95 -2 129 28 196 174 55 119 99 136 230
88 183 -67 292 59 275 320 -6 94 8 151 47 184 l30 25 0 140 0 141 -490 0 -490
0 0 -52z"/>
</g>
</svg>
