<?xml version="1.0" standalone="no"?>
<!DOCTYPE svg PUBLIC "-//W3C//DTD SVG 20010904//EN"
 "http://www.w3.org/TR/2001/REC-SVG-20010904/DTD/svg10.dtd">
<svg version="1.0" xmlns="http://www.w3.org/2000/svg"
 width="300.000000pt" height="194.000000pt" viewBox="0 0 300.000000 194.000000"
 preserveAspectRatio="xMidYMid meet">
<metadata>
Created by potrace 1.10, written by Peter Selinger 2001-2011
</metadata>
<g transform="translate(0.000000,194.000000) scale(0.100000,-0.100000)"
fill="#000000" stroke="none">
<path d="M0 970 l0 -970 729 0 730 0 -9 31 c-5 17 -32 55 -60 85 -40 42 -50
60 -50 87 0 51 31 81 140 138 106 54 160 103 160 145 0 46 -27 81 -84 108 -30
14 -76 44 -101 66 -72 62 -98 58 -195 -35 -77 -73 -128 -105 -169 -105 -30 0
-66 39 -85 92 -24 65 -81 113 -225 187 -175 91 -271 185 -271 265 0 109 82
141 268 101 152 -32 222 -13 256 68 17 40 18 52 8 86 -7 22 -28 58 -47 81 -22
26 -35 53 -35 70 0 35 34 79 76 96 44 18 209 18 339 -1 148 -22 249 -20 301 6
83 40 106 152 61 294 l-23 70 -857 3 -857 2 0 -970z"/>
<path d="M2980 1008 c-5 -13 -14 -43 -20 -67 -15 -59 -58 -101 -102 -101 -19
0 -74 14 -122 31 -140 48 -194 32 -293 -91 -55 -69 -87 -89 -141 -90 -44 0
-69 -14 -87 -50 -24 -47 -19 -117 15 -188 50 -106 43 -129 -63 -206 -47 -34
-63 -65 -71 -141 -4 -33 -10 -70 -13 -82 l-5 -23 461 0 461 0 0 515 c0 283 -2
515 -5 515 -3 0 -10 -10 -15 -22z"/>
</g>
</svg>
