<?xml version="1.0" standalone="no"?>
<!DOCTYPE svg PUBLIC "-//W3C//DTD SVG 20010904//EN"
 "http://www.w3.org/TR/2001/REC-SVG-20010904/DTD/svg10.dtd">
<svg version="1.0" xmlns="http://www.w3.org/2000/svg"
 width="300.000000pt" height="194.000000pt" viewBox="0 0 300.000000 194.000000"
 preserveAspectRatio="xMidYMid meet">
<metadata>
Created by potrace 1.10, written by Peter Selinger 2001-2011
</metadata>
<g transform="translate(0.000000,194.000000) scale(0.100000,-0.100000)"
fill="#000000" stroke="none">
<path d="M0 970 l0 -970 790 0 789 0 -24 46 c-42 79 -28 190 28 227 12 8 49
24 81 36 83 31 111 54 141 115 49 100 41 216 -16 258 -14 11 -65 31 -114 44
-48 14 -124 44 -169 66 -102 53 -169 61 -242 29 -65 -29 -120 -36 -173 -21
-62 16 -101 58 -101 107 0 66 35 98 134 122 110 27 166 79 166 154 0 30 -8 46
-39 80 -66 72 -78 120 -41 157 27 27 72 26 171 -6 106 -33 205 -43 350 -33
179 12 269 51 308 132 27 55 27 121 0 217 -11 41 -23 105 -26 143 l-6 67
-1003 0 -1004 0 0 -970z"/>
<path d="M2972 1628 c-34 -38 -42 -74 -42 -202 0 -149 -16 -210 -68 -265 -52
-55 -108 -69 -182 -46 -124 38 -144 40 -186 19 -33 -16 -43 -29 -68 -89 -36
-89 -79 -151 -116 -170 -17 -9 -56 -15 -93 -15 -115 0 -126 -25 -119 -261 6
-191 0 -210 -84 -300 -62 -66 -64 -70 -64 -122 0 -30 3 -82 6 -116 l7 -61 518
0 519 0 0 825 c0 454 -1 825 -3 825 -2 0 -13 -10 -25 -22z"/>
</g>
</svg>
